<?xml version="1.0" standalone="no"?>
<svg xmlns:xlink="http://www.w3.org/1999/xlink" id="wave" style="transform:rotate(0deg); transition: 0.3s" viewBox="0 0 1440 230" version="1.1" xmlns="http://www.w3.org/2000/svg"><defs><linearGradient id="sw-gradient-0" x1="0" x2="0" y1="1" y2="0"><stop stop-color="rgba(255, 0, 200, 1)" offset="0%"/><stop stop-color="rgba(179, 0, 254, 1)" offset="100%"/></linearGradient></defs><path style="transform:translate(0, 0px); opacity:1" fill="url(#sw-gradient-0)" d="M0,115L34.3,118.8C68.6,123,137,130,206,111.2C274.3,92,343,46,411,46C480,46,549,92,617,126.5C685.7,161,754,184,823,164.8C891.4,146,960,84,1029,72.8C1097.1,61,1166,100,1234,99.7C1302.9,100,1371,61,1440,53.7C1508.6,46,1577,69,1646,95.8C1714.3,123,1783,153,1851,168.7C1920,184,1989,184,2057,184C2125.7,184,2194,184,2263,172.5C2331.4,161,2400,138,2469,126.5C2537.1,115,2606,115,2674,103.5C2742.9,92,2811,69,2880,65.2C2948.6,61,3017,77,3086,103.5C3154.3,130,3223,169,3291,187.8C3360,207,3429,207,3497,180.2C3565.7,153,3634,100,3703,84.3C3771.4,69,3840,92,3909,107.3C3977.1,123,4046,130,4114,115C4182.9,100,4251,61,4320,42.2C4388.6,23,4457,23,4526,49.8C4594.3,77,4663,130,4731,126.5C4800,123,4869,61,4903,30.7L4937.1,0L4937.1,230L4902.9,230C4868.6,230,4800,230,4731,230C4662.9,230,4594,230,4526,230C4457.1,230,4389,230,4320,230C4251.4,230,4183,230,4114,230C4045.7,230,3977,230,3909,230C3840,230,3771,230,3703,230C3634.3,230,3566,230,3497,230C3428.6,230,3360,230,3291,230C3222.9,230,3154,230,3086,230C3017.1,230,2949,230,2880,230C2811.4,230,2743,230,2674,230C2605.7,230,2537,230,2469,230C2400,230,2331,230,2263,230C2194.3,230,2126,230,2057,230C1988.6,230,1920,230,1851,230C1782.9,230,1714,230,1646,230C1577.1,230,1509,230,1440,230C1371.4,230,1303,230,1234,230C1165.7,230,1097,230,1029,230C960,230,891,230,823,230C754.3,230,686,230,617,230C548.6,230,480,230,411,230C342.9,230,274,230,206,230C137.1,230,69,230,34,230L0,230Z"/></svg>